# File created by Blade
# Date/Time:  Tue Jan 27 19:38:24 2015
#---------------------------------------------------------
:version 1.10
:name HOM
:units
  mass 1.0
  length 1.000000
  angle deg
:documentation
     Acclaim Skeleton File
:root
   axis xyz
   order TX TY TZ RX RY RZ
   position 0.000000 0.000000 0.000000
   orientation 0 0 0
:bonedata
   begin
      id 1
      name Spine_dum
      direction 0.000000 1.000000 0.000000
      length 6.116652
      axis 0.0 0.0 0.0 xyz
   end
   begin
      id 2
      name LeftUpLeg_dum
      direction 1.000000 0.000000 0.000000
      length 4.711765
      axis 0.0 0.0 0.0 xyz
   end
   begin
      id 3
      name RightUpLeg_dum
      direction -1.000000 0.000000 0.000000
      length 4.711765
      axis 0.0 0.0 0.0 xyz
   end
   begin
      id 4
      name Spine
      direction 0.000000 1.000000 0.000000
      length 0.000000
      axis 0.0 0.0 0.0 xyz
      dof rx ry rz
   end
   begin
      id 5
      name Spine_dum1
      direction 0.000000 1.000000 0.000000
      length 15.225563
      axis 0.0 0.0 0.0 xyz
   end
   begin
      id 6
      name Spine_dum2
      direction 0.000000 1.000000 0.000000
      length 8.977654
      axis 0.0 0.0 0.0 xyz
   end
   begin
      id 7
      name Spine_dum3
      direction 0.000000 1.000000 0.000000
      length 8.977654
      axis 0.0 0.0 0.0 xyz
   end
   begin
      id 8
      name Head
      direction 0.000000 1.000000 0.000000
      length 4.527550
      axis 0.0 0.0 0.0 xyz
      dof rx ry rz
   end
   begin
      id 9
      name LeftShoulder
      direction 1.000000 0.000000 0.000000
      length 7.110130
      axis 0.0 0.0 -90.0 xyz
      dof rx ry rz
   end
   begin
      id 10
      name LeftArm
      direction 1.000000 0.000000 0.000000
      length 10.398341
      axis 0.0 0.0 -90.0 xyz
      dof rx ry rz
   end
   begin
      id 11
      name LeftForeArm
      direction 1.000000 0.000000 0.000000
      length 8.888997
      axis 0.0 0.0 -90.0 xyz
      dof ry rz rx
   end
   begin
      id 12
      name LeftHand
      direction 0.000000 0.000000 0.000000
      length 0.000000
      axis 0.0 0.0 -90.0 xyz
      dof rx ry rz
   end
   begin
      id 13
      name LeftHand_dum1
      direction 0.000000 0.000000 0.000000
      length 0.000000
      axis 0.0 0.0 -90.0 xyz
   end
   begin
      id 14
      name LeftHand_dum2
      direction 1.000000 0.000000 0.000000
      length 3.937000
      axis 0.0 0.0 -90.0 xyz
   end
   begin
      id 15
      name LeftHandThumb1
      direction 0.000000 0.000000 1.000000
      length 3.937000
      axis 0.0 0.0 -90.0 xyz
      dof rx rz ry
   end
   begin
      id 16
      name RightShoulder
      direction -1.000000 0.000000 0.000000
      length 7.110130
      axis 0.0 0.0 90.0 xyz
      dof rx ry rz
   end
   begin
      id 17
      name RightArm
      direction -1.000000 0.000000 0.000000
      length 10.398341
      axis 0.0 0.0 90.0 xyz
      dof rx ry rz
   end
   begin
      id 18
      name RightForeArm
      direction -1.000000 0.000000 0.000000
      length 8.888997
      axis 0.0 0.0 90.0 xyz
      dof ry rz rx
   end
   begin
      id 19
      name RightHand
      direction 0.000000 0.000000 0.000000
      length 0.000000
      axis 0.0 0.0 90.0 xyz
      dof rx ry rz
   end
   begin
      id 20
      name RightHand_dum1
      direction 0.000000 0.000000 0.000000
      length 0.000000
      axis 0.0 0.0 90.0 xyz
   end
   begin
      id 21
      name RightHand_dum2
      direction -1.000000 0.000000 0.000000
      length 3.937000
      axis 0.0 0.0 90.0 xyz
   end
   begin
      id 22
      name RightHandThumb1
      direction 0.000000 0.000000 1.000000
      length 3.937000
      axis 0.0 0.0 90.0 xyz
      dof rx rz ry
   end
   begin
      id 23
      name LeftUpLeg
      direction 0.000000 -1.000000 0.000000
      length 15.510451
      axis 0.0 0.0 0.0 xyz
      dof rx ry rz
   end
   begin
      id 24
      name LeftLeg
      direction 0.000000 -1.000000 0.000000
      length 14.858061
      axis 0.0 0.0 0.0 xyz
      dof rx ry rz
   end
   begin
      id 25
      name LeftFoot
      direction 0.000000 -0.258819 0.965926
      length 5.128852
      axis 15.0 0.0 0.0 xyz
      dof rx ry rz
   end
   begin
      id 26
      name LeftToeBase
      direction 0.000000 0.000000 1.000000
      length 2.952750
      axis 0.0 0.0 0.0 xyz
      dof rx ry rz
   end
   begin
      id 27
      name RightUpLeg
      direction 0.000000 -1.000000 0.000000
      length 15.510451
      axis 0.0 0.0 0.0 xyz
      dof rx ry rz
   end
   begin
      id 28
      name RightLeg
      direction 0.000000 -1.000000 0.000000
      length 14.858061
      axis 0.0 0.0 0.0 xyz
      dof rx ry rz
   end
   begin
      id 29
      name RightFoot
      direction 0.000000 -0.258819 0.965926
      length 5.128852
      axis 15.0 0.0 0.0 xyz
      dof rx ry rz
   end
   begin
      id 30
      name RightToeBase
      direction 0.000000 0.000000 1.000000
      length 2.952750
      axis 0.0 0.0 0.0 xyz
      dof rx ry rz
   end
:hierarchy
   begin
      root Spine_dum LeftUpLeg_dum RightUpLeg_dum
      Spine_dum Spine
      LeftUpLeg_dum LeftUpLeg
      RightUpLeg_dum RightUpLeg
      Spine Spine_dum1 Spine_dum2 Spine_dum3
      Spine_dum1 Head
      Spine_dum2 LeftShoulder
      Spine_dum3 RightShoulder
      LeftShoulder LeftArm
      LeftArm LeftForeArm
      LeftForeArm LeftHand
      LeftHand LeftHand_dum1 LeftHand_dum2
      LeftHand_dum1 LeftHandThumb1
      RightShoulder RightArm
      RightArm RightForeArm
      RightForeArm RightHand
      RightHand RightHand_dum1 RightHand_dum2
      RightHand_dum1 RightHandThumb1
      LeftUpLeg LeftLeg
      LeftLeg LeftFoot
      LeftFoot LeftToeBase
      RightUpLeg RightLeg
      RightLeg RightFoot
      RightFoot RightToeBase
   end

# File created by Blade
# Date/Time:  Tue Jan 27 19:38:14 2015
# Frame Rate: 120.000 fps
#------------------------------------------------------
:FULLY-SPECIFIED
:DEGREES
1
root 4.469814 32.399704 2.265296 -3.321171 0.394196 0.663519
Spine 2.794921 5.613836 -1.069673
Head 2.794934 -9.200702 1.408842
LeftShoulder -14.204474 -5.977292 40.973628
LeftArm 16.506566 -14.497703 -44.008930
LeftForeArm 18.346094 -0.000000 -7.089297
LeftHand 7.423129 0.000000 -7.670475
LeftHandThumb1 -26.253704 0.000000 33.147579
RightShoulder -18.285662 -16.482792 -38.510023
RightArm 14.071071 22.935840 48.123408
RightForeArm -16.004769 0.000000 9.608838
RightHand 13.709831 -0.000000 5.730311
RightHandThumb1 -24.326973 -0.000000 -32.862282
LeftUpLeg 7.937538 -3.454014 -3.610365
LeftLeg 2.473318 -0.000000 -0.000000
LeftFoot -16.480200 13.640170 -21.616309
LeftToeBase 17.261083 -0.000000 -0.000000
RightUpLeg 7.243321 -6.072767 2.775185
RightLeg 2.160561 -0.000000 -0.000000
RightFoot -12.343075 -14.500525 12.306178
RightToeBase 10.490074 -0.000000 -0.000000
2
root 4.468711 32.399899 2.265883 -3.319336 0.405267 0.665246
Spine 2.803555 5.624961 -1.078731
Head 2.797894 -9.139970 1.378356
LeftShoulder -14.208958 -5.982464 40.978880
LeftArm 16.527754 -14.461690 -44.037092
LeftForeArm 18.332316 -0.000000 -7.101715
LeftHand 7.400018 -0.000000 -7.657845
LeftHandThumb1 -26.253704 0.000000 33.147579
RightShoulder -18.283062 -16.465712 -38.499574
RightArm 14.038233 22.944794 48.136202
RightForeArm -15.973329 0.000000 9.647930
RightHand 13.675849 -0.000000 5.674086
RightHandThumb1 -24.326973 -0.000000 -32.862282
LeftUpLeg 7.936733 -3.426370 -3.604802
LeftLeg 2.459488 -0.000000 -0.000000
LeftFoot -16.445422 13.632522 -21.590028
LeftToeBase 17.190432 -0.000000 -0.000000
RightUpLeg 7.240069 -6.021644 2.775976
RightLeg 2.191090 -0.000000 -0.000000
RightFoot -12.547540 -14.473897 12.636853
RightToeBase 11.018220 -0.000000 -0.000000
3
root 4.467683 32.399444 2.266104 -3.312227 0.418278 0.666523
Spine 2.794397 5.617715 -1.080214
Head 2.817749 -9.150736 1.372921
LeftShoulder -14.211188 -5.924578 40.964513
LeftArm 16.583958 -14.462612 -44.075013
LeftForeArm 18.331852 -0.000000 -7.146835
LeftHand 7.493048 -0.000000 -7.650414
LeftHandThumb1 -26.253704 0.000000 33.147579
RightShoulder -18.261641 -16.410693 -38.530831
RightArm 13.991638 22.927567 48.165671
RightForeArm -15.907209 -0.000000 9.684668
RightHand 13.642601 -0.000000 5.606175
RightHandThumb1 -24.326973 -0.000000 -32.862282
LeftUpLeg 7.929274 -3.434459 -3.604542
LeftLeg 2.461744 -0.000000 -0.000000
LeftFoot -16.366664 13.646180 -21.445374
LeftToeBase 16.881058 -0.000000 -0.000000
RightUpLeg 7.223246 -6.026106 2.780775
RightLeg 2.200924 -0.000000 -0.000000
RightFoot -12.467241 -14.500815 12.484174
RightToeBase 10.727963 -0.000000 -0.000000
4
root 4.466869 32.399212 2.266401 -3.311509 0.438899 0.668866
Spine 2.799435 5.610247 -1.081924
Head 2.819712 -9.169808 1.362298
LeftShoulder -14.192453 -5.936518 40.958224
LeftArm 16.586998 -14.380567 -44.080181
LeftForeArm 18.271785 0.000000 -7.207807
LeftHand 7.518908 -0.000000 -7.627843
LeftHandThumb1 -26.253704 0.000000 33.147579
RightShoulder -18.281546 -16.471942 -38.508471
RightArm 14.071241 22.998287 48.231355
RightForeArm -15.923443 -0.000000 9.707251
RightHand 13.640590 -0.000000 5.667726
RightHandThumb1 -24.326973 -0.000000 -32.862282
LeftUpLeg 7.925161 -3.466559 -3.604773
LeftLeg 2.465291 -0.000000 -0.000000
LeftFoot -16.459265 13.618214 -21.618351
LeftToeBase 17.182584 -0.000000 -0.000000
RightUpLeg 7.231577 -6.068454 2.779335
RightLeg 2.188409 -0.000000 -0.000000
RightFoot -12.442546 -14.501153 12.426775
RightToeBase 10.704629 -0.000000 -0.000000
5
root 4.465796 32.399225 2.265986 -3.302559 0.447909 0.669503
Spine 2.795453 5.623854 -1.090580
Head 2.828606 -9.156475 1.361190
LeftShoulder -14.169675 -5.945929 40.955219
LeftArm 16.546263 -14.369893 -44.104585
LeftForeArm 18.241506 -0.000000 -7.148041
LeftHand 7.498327 -0.000000 -7.627541
LeftHandThumb1 -26.253704 0.000000 33.147579
RightShoulder -18.273681 -16.446448 -38.500337
RightArm 14.030921 23.022503 48.246045
RightForeArm -15.927329 0.000000 9.750940
RightHand 13.679493 -0.000000 5.654445
RightHandThumb1 -24.326973 -0.000000 -32.862282
LeftUpLeg 7.916800 -3.453040 -3.600834
LeftLeg 2.459164 -0.000000 -0.000000
LeftFoot -16.439543 13.611384 -21.588460
LeftToeBase 17.147961 -0.000000 -0.000000
RightUpLeg 7.208458 -5.997837 2.784205
RightLeg 2.232354 -0.000000 -0.000000
RightFoot -12.596736 -14.515321 12.686406
RightToeBase 11.044275 -0.000000 -0.000000
6
root 4.464376 32.399205 2.267457 -3.312148 0.474894 0.671969
Spine 2.809384 5.617122 -1.096836
Head 2.838834 -9.149076 1.348577
LeftShoulder -14.170067 -5.923667 40.940711
LeftArm 16.585264 -14.339192 -44.132744
LeftForeArm 18.272753 0.000000 -7.174159
LeftHand 7.545128 -0.000000 -7.620025
LeftHandThumb1 -26.253704 0.000000 33.147579
RightShoulder -18.286672 -16.481160 -38.475327
RightArm 14.084708 23.113348 48.306446
RightForeArm -15.963199 -0.000000 9.776538
RightHand 13.703060 0.000000 5.675166
RightHandThumb1 -24.326973 -0.000000 -32.862282
LeftUpLeg 7.926098 -3.466767 -3.599422
LeftLeg 2.460572 -0.000000 -0.000000
LeftFoot -16.444024 13.581100 -21.615200
LeftToeBase 17.144195 -0.000000 -0.000000
RightUpLeg 7.227588 -6.065099 2.780566
RightLeg 2.209092 -0.000000 -0.000000
RightFoot -12.473902 -14.518253 12.473103
RightToeBase 10.698498 -0.000000 -0.000000
7
root 4.464455 32.398895 2.265927 -3.294422 0.480913 0.674836
Spine 2.798520 5.617065 -1.103983
Head 2.849152 -9.125603 1.340445
LeftShoulder -14.165492 -5.933355 40.940450
LeftArm 16.507635 -14.130134 -44.120990
LeftForeArm 18.064353 -0.000000 -7.035436
LeftHand 7.371920 -0.000000 -7.662848
LeftHandThumb1 -26.253704 0.000000 33.147579
RightShoulder -18.290806 -16.501864 -38.444860
RightArm 14.094853 23.078449 48.321882
RightForeArm -15.859650 -0.000000 9.883525
RightHand 13.673502 -0.000000 5.612010
RightHandThumb1 -24.326973 -0.000000 -32.862282
LeftUpLeg 7.904220 -3.482614 -3.606363
LeftLeg 2.474983 -0.000000 -0.000000
LeftFoot -16.371236 13.607609 -21.465611
LeftToeBase 16.960717 -0.000000 -0.000000
RightUpLeg 7.202295 -6.075111 2.782589
RightLeg 2.209375 -0.000000 -0.000000
RightFoot -12.404407 -14.575020 12.344174
RightToeBase 10.437171 -0.000000 -0.000000
8
root 4.460481 32.399308 2.269842 -3.316559 0.511309 0.663635
Spine 2.823034 5.597421 -1.108739
Head 2.860222 -9.092764 1.352971
LeftShoulder -14.155845 -5.935469 40.937851
LeftArm 16.469587 -14.276887 -44.186470
LeftForeArm 18.231718 -0.000000 -6.966932
LeftHand 7.475257 -0.000000 -7.554991
LeftHandThumb1 -26.253704 0.000000 33.147579
RightShoulder -18.293989 -16.495158 -38.411549
RightArm 14.108837 23.125415 48.367516
RightForeArm -15.897680 0.000000 9.946039
RightHand 13.688489 -0.000000 5.487644
RightHandThumb1 -24.326973 -0.000000 -32.862282
LeftUpLeg 7.939012 -3.472349 -3.580896
LeftLeg 2.443659 -0.000000 -0.000000
LeftFoot -16.408764 13.556419 -21.580361
LeftToeBase 17.101140 -0.000000 -0.000000
RightUpLeg 7.237405 -6.125834 2.790423
RightLeg 2.211617 -0.000000 -0.000000
RightFoot -12.462120 -14.516831 12.432975
RightToeBase 10.711368 -0.000000 -0.000000
